<svg width="39" height="39" viewBox="0 0 39 39" fill="none" xmlns="http://www.w3.org/2000/svg">
<rect width="39" height="39" rx="10" fill="#EC9706" fill-opacity="0.12"/>
<g clip-path="url(#clip0_7_262)">
<path fill-rule="evenodd" clip-rule="evenodd" d="M25.817 14.9889C25.464 14.4809 24.52 13.7669 22.991 14.0749C22.099 14.2539 21.566 14.6949 21.227 15.2769C20.866 15.8969 20.691 16.7399 20.691 17.7209C20.691 17.9861 20.5856 18.2405 20.3981 18.428C20.2106 18.6155 19.9562 18.7209 19.691 18.7209C17.325 18.7209 15.073 18.0179 13.178 16.1169C13.0349 16.8882 12.9786 17.6731 13.01 18.4569C13.063 19.5429 13.322 20.6319 13.937 21.5649C14.542 22.4819 15.537 23.3219 17.201 23.8499C17.3641 23.9016 17.5111 23.9943 17.6281 24.1191C17.7451 24.2439 17.8282 24.3966 17.8693 24.5626C17.9104 24.7287 17.9083 24.9025 17.8631 25.0675C17.8178 25.2324 17.731 25.383 17.611 25.5049C17.078 26.0516 16.4739 26.5242 15.815 26.9099C16.875 27.0199 17.897 27.0279 18.845 26.9419C20.765 26.7679 22.294 26.2189 23.25 25.4419C25.263 23.8099 26.34 21.3759 26.14 17.2979C26.106 16.6279 26.753 15.9049 27.065 15.3559C26.594 15.4439 26.122 15.4279 25.817 14.9889ZM12.594 12.9839C12.7751 12.9629 12.9584 12.9917 13.1243 13.0673C13.2901 13.1429 13.4321 13.2624 13.535 13.4129C15.011 15.5719 16.783 16.4699 18.75 16.6739C18.846 15.8329 19.073 15.0019 19.5 14.2699C20.126 13.1959 21.144 12.4059 22.598 12.1139C24.608 11.7099 26.138 12.4379 27.025 13.3289L28.817 12.9939C29.0045 12.9588 29.1982 12.978 29.3751 13.0494C29.5521 13.1207 29.7049 13.2412 29.8156 13.3966C29.9263 13.5519 29.9902 13.7357 29.9999 13.9263C30.0095 14.1168 29.9645 14.3061 29.87 14.4719L28.15 17.4939C28.307 21.8549 27.095 24.8989 24.511 26.9959C23.141 28.1079 21.179 28.7389 19.026 28.9339C16.856 29.1299 14.403 28.8929 11.965 28.1809C11.7567 28.1201 11.5738 27.9933 11.4439 27.8194C11.314 27.6456 11.2442 27.4343 11.245 27.2173C11.2458 27.0003 11.3172 26.7894 11.4483 26.6166C11.5794 26.4437 11.7633 26.3181 11.972 26.2589C13.198 25.9099 14.132 25.6089 14.975 25.0819C13.776 24.4459 12.893 23.6139 12.268 22.6659C11.4 21.3479 11.078 19.8779 11.014 18.5529C10.95 17.2279 11.141 15.9999 11.343 15.1149C11.458 14.6099 11.592 14.1039 11.777 13.6199C11.8423 13.4493 11.953 13.2998 12.0972 13.1877C12.2414 13.0756 12.4126 13.0051 12.594 12.9839Z" fill="black"/>
</g>
<defs>
<clipPath id="clip0_7_262">
<rect width="24" height="24" fill="white" transform="translate(8 8)"/>
</clipPath>
</defs>
</svg>
